<svg width="30" height="30" viewBox="0 0 30 30" fill="none" xmlns="http://www.w3.org/2000/svg">
<path d="M28.2422 13.6839V6.8559C28.2422 3.94812 25.8765 1.58246 22.9688 1.58246H17.4316C17.108 1.58246 16.8457 1.84478 16.8457 2.1684C16.8457 2.49201 17.108 2.75433 17.4316 2.75433H22.9688C25.2304 2.75433 27.0703 4.59429 27.0703 6.8559V13.0671C26.629 12.9154 26.1562 12.8318 25.6641 12.8318H25.5469V9.4724C25.5469 8.22312 24.5305 7.20676 23.2812 7.20676H16.6797C16.0142 7.20676 15.4149 7.49527 15 7.95365C14.5851 7.49527 13.9858 7.20676 13.3203 7.20676H6.71877C5.46949 7.20676 4.45312 8.22312 4.45312 9.47234V12.8317H4.33594C3.84375 12.8317 3.37102 12.9153 2.92969 13.0671V6.8559C2.92969 4.59429 4.76965 2.75433 7.03125 2.75433H12.6855C13.0092 2.75433 13.2715 2.49201 13.2715 2.1684C13.2715 1.84478 13.0092 1.58246 12.6855 1.58246H7.03125C4.12348 1.58246 1.75781 3.94812 1.75781 6.8559V13.684C0.692109 14.4747 0 15.7418 0 17.1678V24.6678C0 24.9914 0.262324 25.2537 0.585938 25.2537H1.75781V27.8318C1.75781 28.1554 2.02014 28.4178 2.34375 28.4178H5.50852C5.83213 28.4178 6.09445 28.1554 6.09445 27.8318V25.2537H23.9055V27.8318C23.9055 28.1554 24.1679 28.4178 24.4915 28.4178H27.6562C27.9799 28.4178 28.2422 28.1554 28.2422 27.8318V25.2537H29.4141C29.7377 25.2537 30 24.9914 30 24.6678V17.1678C30 15.7418 29.3079 14.4747 28.2422 13.6839ZM15.5859 9.47234C15.5859 8.86924 16.0766 8.37857 16.6797 8.37857H23.2813C23.8844 8.37857 24.3751 8.86924 24.3751 9.47234V12.8317H15.5859V9.47234ZM5.625 9.47234C5.625 8.86924 6.11566 8.37857 6.71877 8.37857H13.3204C13.9235 8.37857 14.4141 8.86924 14.4141 9.47234V12.8317H5.625V9.47234ZM4.92258 27.2458H2.92969V25.2536H4.92258V27.2458ZM27.0703 27.2458H25.0774V25.2536H27.0703V27.2458ZM28.8281 21.2693H5.386C5.06238 21.2693 4.80006 21.5316 4.80006 21.8552C4.80006 22.1788 5.06238 22.4411 5.386 22.4411H28.8281V24.0818H27.6704C27.6657 24.0816 27.6611 24.0811 27.6562 24.0811H24.4915C24.4867 24.0811 24.4821 24.0816 24.4773 24.0818H5.5227C5.51795 24.0816 5.51332 24.0811 5.50852 24.0811H2.34375C2.33895 24.0811 2.33432 24.0816 2.32957 24.0818H1.17188V17.1677C1.17188 15.423 2.59125 14.0036 4.33594 14.0036H5.03906H15H24.9609H25.6641C27.4088 14.0036 28.8281 15.423 28.8281 17.1677V21.2693Z" fill="#393939"/>
<path d="M15.4143 1.75402C15.3053 1.64503 15.1541 1.58234 15 1.58234C14.8459 1.58234 14.6947 1.64503 14.5857 1.75402C14.4768 1.863 14.4141 2.01417 14.4141 2.16827C14.4141 2.32238 14.4768 2.47355 14.5857 2.58253C14.6947 2.69152 14.8459 2.75421 15 2.75421C15.1541 2.75421 15.3053 2.69152 15.4143 2.58253C15.5232 2.47355 15.5859 2.32296 15.5859 2.16827C15.5859 2.01417 15.5232 1.86294 15.4143 1.75402Z" fill="#393939"/>
<path d="M3.46602 21.4408C3.35703 21.3319 3.20586 21.2692 3.05176 21.2692C2.89707 21.2692 2.74648 21.3319 2.6375 21.4408C2.52852 21.5498 2.46582 21.701 2.46582 21.8551C2.46582 22.0092 2.52852 22.1604 2.6375 22.2694C2.74648 22.3783 2.89766 22.441 3.05176 22.441C3.20586 22.441 3.35703 22.3783 3.46602 22.2694C3.575 22.1604 3.6377 22.0092 3.6377 21.8551C3.6377 21.701 3.575 21.5498 3.46602 21.4408Z" fill="#393939"/>
</svg>
