<svg width="30" height="30" viewBox="0 0 30 30" fill="none" xmlns="http://www.w3.org/2000/svg">
<g clip-path="url(#clip0_27_28)">
<path d="M13.7695 5.33203C13.7695 4.03969 12.7181 2.98828 11.4258 2.98828C10.1334 2.98828 9.08203 4.03969 9.08203 5.33203C9.08203 6.62437 10.1334 7.67578 11.4258 7.67578C12.7181 7.67578 13.7695 6.62437 13.7695 5.33203ZM11.4258 6.50391C10.7796 6.50391 10.2539 5.9782 10.2539 5.33203C10.2539 4.68586 10.7796 4.16016 11.4258 4.16016C12.072 4.16016 12.5977 4.68586 12.5977 5.33203C12.5977 5.9782 12.072 6.50391 11.4258 6.50391Z" fill="#393939"/>
<path d="M6.5625 5.33203C6.5625 4.03969 5.51109 2.98828 4.21875 2.98828C2.92641 2.98828 1.875 4.03969 1.875 5.33203C1.875 6.62437 2.92641 7.67578 4.21875 7.67578C5.51109 7.67578 6.5625 6.62437 6.5625 5.33203ZM4.21875 6.50391C3.57258 6.50391 3.04688 5.9782 3.04688 5.33203C3.04688 4.68586 3.57258 4.16016 4.21875 4.16016C4.86492 4.16016 5.39062 4.68586 5.39062 5.33203C5.39062 5.9782 4.86492 6.50391 4.21875 6.50391Z" fill="#393939"/>
<path d="M20.918 5.33203C20.918 4.03969 19.8666 2.98828 18.5742 2.98828C17.2819 2.98828 16.2305 4.03969 16.2305 5.33203C16.2305 6.62437 17.2819 7.67578 18.5742 7.67578C19.8666 7.67578 20.918 6.62437 20.918 5.33203ZM18.5742 6.50391C17.928 6.50391 17.4023 5.9782 17.4023 5.33203C17.4023 4.68586 17.928 4.16016 18.5742 4.16016C19.2204 4.16016 19.7461 4.68586 19.7461 5.33203C19.7461 5.9782 19.2204 6.50391 18.5742 6.50391Z" fill="#393939"/>
<path d="M28.125 5.33203C28.125 4.03969 27.0736 2.98828 25.7812 2.98828C24.4889 2.98828 23.4375 4.03969 23.4375 5.33203C23.4375 6.62437 24.4889 7.67578 25.7812 7.67578C27.0736 7.67578 28.125 6.62437 28.125 5.33203ZM25.7812 6.50391C25.1351 6.50391 24.6094 5.9782 24.6094 5.33203C24.6094 4.68586 25.1351 4.16016 25.7812 4.16016C26.4274 4.16016 26.9531 4.68586 26.9531 5.33203C26.9531 5.9782 26.4274 6.50391 25.7812 6.50391Z" fill="#393939"/>
<path d="M27.5391 22.9102C27.8627 22.9102 28.125 22.6478 28.125 22.3242C28.125 22.0006 27.8627 21.7383 27.5391 21.7383C27.2155 21.7383 26.9531 22.0006 26.9531 22.3242C26.9531 22.6478 27.2155 22.9102 27.5391 22.9102Z" fill="#393939"/>
<path d="M25.7812 7.67578C24.3577 7.67578 22.9443 8.42502 22.1559 9.70055C21.4269 8.49287 20.094 7.67578 18.5742 7.67578C17.0458 7.67578 15.7225 8.50078 15 9.68766C14.2791 8.50324 12.9576 7.67578 11.4258 7.67578C9.90762 7.67578 8.57332 8.49252 7.84406 9.70055C7.0558 8.4252 5.64246 7.67578 4.21875 7.67578C2.00461 7.67578 0 9.46383 0 11.7773V17.6367C0 17.9603 0.262324 18.2227 0.585938 18.2227H1.875V26.4258C1.875 26.7493 2.13732 27.0117 2.46094 27.0117H5.97656C6.30018 27.0117 6.5625 26.7493 6.5625 26.4258V18.2227H9.08203V26.4258C9.08203 26.7493 9.34436 27.0117 9.66797 27.0117H13.1836C13.5072 27.0117 13.7695 26.7493 13.7695 26.4258V18.2227H16.2305V26.4258C16.2305 26.7493 16.4928 27.0117 16.8164 27.0117H20.332C20.6556 27.0117 20.918 26.7493 20.918 26.4258V18.2227H23.4375V26.4258C23.4375 26.7493 23.6998 27.0117 24.0234 27.0117H27.5391C27.8627 27.0117 28.125 26.7493 28.125 26.4258V24.9609C28.125 24.6374 27.8627 24.375 27.5391 24.375C27.2154 24.375 26.9531 24.6374 26.9531 24.9609V25.8398H24.6094V17.6367C24.6094 17.3132 24.3471 17.0508 24.0234 17.0508H22.7344V11.7773C22.7344 10.1893 24.1297 8.84766 25.7812 8.84766C27.4328 8.84766 28.8281 10.1893 28.8281 11.7773V17.0508H27.5391C27.2154 17.0508 26.9531 17.3132 26.9531 17.6367V19.6875C26.9531 20.0111 27.2154 20.2734 27.5391 20.2734C27.8627 20.2734 28.125 20.0111 28.125 19.6875V18.2227H29.4141C29.7377 18.2227 30 17.9603 30 17.6367V11.7773C30 9.464 27.9956 7.67578 25.7812 7.67578ZM5.97656 17.0508C5.65295 17.0508 5.39062 17.3132 5.39062 17.6367V25.8398H3.04688V17.6367C3.04688 17.3132 2.78455 17.0508 2.46094 17.0508H1.17188V11.7773C1.17188 10.1893 2.56717 8.84766 4.21875 8.84766C5.87033 8.84766 7.26562 10.1893 7.26562 11.7773V17.0508H5.97656ZM13.1836 17.0508C12.86 17.0508 12.5977 17.3132 12.5977 17.6367V25.8398H10.2539V17.6367C10.2539 17.3132 9.99158 17.0508 9.66797 17.0508H8.4375V11.7773C8.4375 10.1619 9.77801 8.84766 11.4258 8.84766C13.0736 8.84766 14.4141 10.1619 14.4141 11.7773V17.0508H13.1836ZM20.332 17.0508C20.0084 17.0508 19.7461 17.3132 19.7461 17.6367V25.8398H17.4023V17.6367C17.4023 17.3132 17.14 17.0508 16.8164 17.0508H15.5859V11.7773C15.5859 10.1619 16.9264 8.84766 18.5742 8.84766C20.222 8.84766 21.5625 10.1619 21.5625 11.7773V17.0508H20.332Z" fill="#393939"/>
</g>
<defs>
<clipPath id="clip0_27_28">
<rect width="30" height="30" fill="white"/>
</clipPath>
</defs>
</svg>
