<svg width="70" height="70" viewBox="0 0 70 70" fill="none" xmlns="http://www.w3.org/2000/svg">
<path d="M33.9062 19.6875C33.9062 13.0539 28.5086 7.65625 21.875 7.65625C15.2414 7.65625 9.84375 13.0539 9.84375 19.6875C9.84375 22.4514 10.7909 24.9933 12.3637 27.0277C12.1537 27.4652 12.0312 27.942 12.0312 28.4375V35.047C10.7702 33.0323 8.53562 31.7188 6.05391 31.7188C4.52594 31.7188 3.28125 32.9623 3.28125 34.4914C3.28125 35.0405 3.44203 35.572 3.74719 36.0292L4.87266 37.7169C5.28937 38.3425 5.55844 39.0666 5.65141 39.8125L6.42687 46.013C6.54391 46.9558 6.90703 47.8559 7.47906 48.6161L9.84375 51.7705V53.5938H7.65625V68.9062H31.7188V53.5938H29.5312V51.6644L31.1423 48.4433C31.5186 47.6886 31.7188 46.842 31.7188 45.9987V28.4375C31.7188 27.942 31.5952 27.4652 31.3862 27.0277C32.9591 24.9944 33.9062 22.4525 33.9062 19.6875ZM21.875 9.84375C27.3033 9.84375 31.7188 14.2603 31.7188 19.6875C31.7188 25.1147 27.3033 29.5312 21.875 29.5312C16.4467 29.5312 12.0312 25.1147 12.0312 19.6875C12.0312 14.2603 16.4467 9.84375 21.875 9.84375ZM29.5312 55.7812V57.9688H9.84375V55.7812H29.5312ZM9.84375 66.7188V60.1562H29.5312V66.7188H9.84375ZM29.1856 47.4655L27.3438 51.1481V53.5938H12.0312V51.042L9.22906 47.3047C8.88672 46.8486 8.66797 46.3094 8.59797 45.7439L7.8225 39.5434C7.68797 38.4639 7.29859 37.4128 6.69375 36.5061L5.56719 34.8162C5.50266 34.72 5.46875 34.6073 5.46875 34.4914C5.46875 34.1688 5.73125 33.9062 6.05391 33.9062C8.36281 33.9062 10.3688 35.5502 10.8227 37.8153L12.1877 44.6425L12.8592 44.8109C14.9483 45.3338 16.4062 47.2008 16.4062 49.3533V51.4062H18.5938V49.3533C18.5938 46.4909 16.8306 43.9808 14.2188 42.9636V28.9614C14.8892 29.5159 15.6253 29.9906 16.4062 30.3909V41.5625H18.5938V31.2528C19.2992 31.453 20.0287 31.5952 20.7812 31.6641V41.5625H22.9688V31.663C23.7213 31.5952 24.4508 31.453 25.1562 31.2517V41.5625H27.3438V30.3909C28.1247 29.9906 28.8608 29.5159 29.5312 28.9614V45.9987C29.5312 46.5052 29.412 47.0127 29.1856 47.4655Z" fill="#039BE5"/>
<path d="M21.875 22.9688C21.2713 22.9688 20.7812 22.4777 20.7812 21.875H18.5938C18.5938 23.2991 19.5114 24.5022 20.7812 24.955V27.3438H22.9688V25.1562H25.1562V21.875C25.1562 20.0659 23.6841 18.5938 21.875 18.5938C21.2713 18.5938 20.7812 18.1027 20.7812 17.5V16.4062H21.875C22.4787 16.4062 22.9688 16.8973 22.9688 17.5H25.1562C25.1562 16.0759 24.2386 14.8728 22.9688 14.42V12.0312H20.7812V14.2188H18.5938V17.5C18.5938 19.3091 20.0659 20.7812 21.875 20.7812C22.4787 20.7812 22.9688 21.2723 22.9688 21.875V22.9688H21.875Z" fill="#039BE5"/>
<path d="M66.2528 33.9708L65.1273 32.2831C64.7106 31.6575 64.4416 30.9334 64.3486 30.1875L63.5731 23.987C63.4561 23.0442 63.093 22.1441 62.5209 21.3839L60.1562 18.2295V16.4062H62.3438V1.09375H38.2812V16.4062H40.4688V18.3356L38.8577 21.5567C38.4814 22.3114 38.2812 23.158 38.2812 24.0013V41.5625C38.2812 41.7802 38.3053 41.9945 38.3469 42.2034C35.6191 44.7956 33.9062 48.4477 33.9062 52.5C33.9062 60.34 40.285 66.7188 48.125 66.7188C55.965 66.7188 62.3438 60.34 62.3438 52.5C62.3438 48.4477 60.6309 44.7956 57.9031 42.2034C57.9447 41.9945 57.9688 41.7802 57.9688 41.5625V34.953C59.2298 36.9677 61.4644 38.2812 63.9461 38.2812C65.4741 38.2812 66.7188 37.0377 66.7188 35.5086C66.7188 34.9595 66.558 34.428 66.2528 33.9708ZM60.1562 3.28125V14.2188H40.4688V9.84375H49.2188V7.65625H40.4688V3.28125H60.1562ZM60.1562 52.5C60.1562 59.1336 54.7586 64.5312 48.125 64.5312C41.4914 64.5312 36.0938 59.1336 36.0938 52.5C36.0938 45.8664 41.4914 40.4688 48.125 40.4688C54.7586 40.4688 60.1562 45.8664 60.1562 52.5ZM63.9461 36.0938C61.6372 36.0938 59.6313 34.4498 59.1773 32.1847L57.8123 25.3575L57.1408 25.1891C55.0517 24.6663 53.5938 22.7992 53.5938 20.6467V18.5938H51.4062V20.6467C51.4062 23.5091 53.1694 26.0192 55.7812 27.0364V40.5377C55.0889 40.0925 54.3605 39.6987 53.5938 39.3783V28.4375H51.4062V38.6783C50.6953 38.5098 49.9658 38.3939 49.2188 38.3359V28.4375H47.0312V38.337C46.2842 38.3939 45.5547 38.5098 44.8438 38.6794V28.4375H42.6562V39.3783C41.8895 39.6987 41.1611 40.0936 40.4688 40.5377V24.0013C40.4688 23.4948 40.588 22.9873 40.8144 22.5334L42.6562 18.8519V16.4062H57.9688V18.958L60.7709 22.6953C61.1133 23.1514 61.332 23.6906 61.402 24.2561L62.1775 30.4566C62.312 31.5361 62.7014 32.5872 63.3063 33.4939L64.4317 35.1816C64.4963 35.2778 64.5302 35.3905 64.5302 35.5064C64.5312 35.8313 64.2687 36.0938 63.9461 36.0938Z" fill="#039BE5"/>
<path d="M40.7793 58.288L53.9026 45.1646L55.4492 46.7112L42.3259 59.8345L40.7793 58.288Z" fill="#039BE5"/>
<path d="M52.5 53.5938C50.6909 53.5938 49.2188 55.0659 49.2188 56.875C49.2188 58.6841 50.6909 60.1562 52.5 60.1562C54.3091 60.1562 55.7812 58.6841 55.7812 56.875C55.7812 55.0659 54.3091 53.5938 52.5 53.5938ZM52.5 57.9688C51.8963 57.9688 51.4062 57.4777 51.4062 56.875C51.4062 56.2723 51.8963 55.7812 52.5 55.7812C53.1037 55.7812 53.5938 56.2723 53.5938 56.875C53.5938 57.4777 53.1037 57.9688 52.5 57.9688Z" fill="#039BE5"/>
<path d="M43.75 51.4062C45.5591 51.4062 47.0312 49.9341 47.0312 48.125C47.0312 46.3159 45.5591 44.8438 43.75 44.8438C41.9409 44.8438 40.4688 46.3159 40.4688 48.125C40.4688 49.9341 41.9409 51.4062 43.75 51.4062ZM43.75 47.0312C44.3537 47.0312 44.8438 47.5223 44.8438 48.125C44.8438 48.7277 44.3537 49.2188 43.75 49.2188C43.1463 49.2188 42.6562 48.7277 42.6562 48.125C42.6562 47.5223 43.1463 47.0312 43.75 47.0312Z" fill="#039BE5"/>
<path d="M54.6875 12.0312C56.4966 12.0312 57.9688 10.5591 57.9688 8.75C57.9688 6.94094 56.4966 5.46875 54.6875 5.46875C52.8784 5.46875 51.4062 6.94094 51.4062 8.75C51.4062 10.5591 52.8784 12.0312 54.6875 12.0312ZM54.6875 7.65625C55.2912 7.65625 55.7812 8.14734 55.7812 8.75C55.7812 9.35266 55.2912 9.84375 54.6875 9.84375C54.0838 9.84375 53.5938 9.35266 53.5938 8.75C53.5938 8.14734 54.0838 7.65625 54.6875 7.65625Z" fill="#039BE5"/>
</svg>
