<svg width="30" height="30" viewBox="0 0 30 30" fill="none" xmlns="http://www.w3.org/2000/svg">
<path d="M28.5 29H25.5V0.49998C25.5 0.19998 25.3 0 25 0H4.99996C4.69996 0 4.49998 0.19998 4.49998 0.49998V29H1.49998C1.19998 29 1 29.2 1 29.5C1 29.8 1.19998 30 1.49998 30H4.99996H6.99994H23H24.9999H28.5C28.8 30 29 29.8 29 29.5C29 29.2 28.8 29 28.5 29ZM7.49998 29V3H22.5V29H7.49998ZM23.5 29V2.50002C23.5 2.20002 23.3 2.00004 23 2.00004H7C6.7 2.00004 6.50002 2.20002 6.50002 2.50002V29H5.5V1.00002H24.5V29H23.5V29Z" fill="#393939"/>
<path d="M21 14.5H19C18.7 14.5 18.5 14.7 18.5 15V15.5H17.5C17.2 15.5 17 15.6999 17 15.9999C17 16.3 17.2 16.4999 17.5 16.4999H18.5V16.9999C18.5 17.2999 18.7 17.4999 19 17.4999H21C21.3 17.4999 21.4999 17.2999 21.4999 16.9999V15C21.4999 14.7 21.3 14.5 21 14.5ZM20.5 16.5H19.5V15.5H20.5V16.5Z" fill="#393939"/>
</svg>
