<svg width="70" height="70" viewBox="0 0 70 70" fill="none" xmlns="http://www.w3.org/2000/svg">
<g clip-path="url(#clip0_31_71)">
<path d="M28.0666 50.9945C28.0664 50.9945 28.0663 50.9945 28.0662 50.9945C28.0634 50.9945 28.0608 50.9949 28.0581 50.9949C26.6921 51.004 26.2309 50.9297 25.1592 50.2287C24.6853 49.9185 24.0499 50.0516 23.7397 50.5254C23.4296 50.9994 23.5625 51.6349 24.0365 51.9448C25.2092 52.712 26.0201 52.9547 27.0407 53.0223V53.9373C27.0407 54.5036 27.4997 54.9627 28.0662 54.9627C28.6326 54.9627 29.0916 54.5036 29.0916 53.9373V52.9363C31.1736 52.4921 32.3908 50.7599 32.6632 49.14C33.0185 47.0268 31.9138 45.1895 29.8486 44.4597C28.6002 44.0185 27.2167 43.4832 26.4206 42.8588C26.0834 42.5944 25.9358 42.0513 26.0443 41.4753C26.1493 40.9179 26.529 40.2418 27.2796 40.0156C27.5693 39.9284 27.8403 39.884 28.0913 39.8698C28.0993 39.8696 28.1069 39.8689 28.1147 39.8685C29.2075 39.8147 29.9112 40.341 30.0653 40.4693C30.5008 40.8313 31.1471 40.7723 31.5094 40.3369C31.8716 39.9016 31.8125 39.255 31.3772 38.8929C31.1625 38.7143 30.34 38.0926 29.0915 37.8837V37.0668C29.0915 36.5005 28.6325 36.0414 28.066 36.0414C27.4996 36.0414 27.0406 36.5005 27.0406 37.0668V37.9589C26.9247 37.9861 26.8075 38.0161 26.688 38.052C25.3241 38.4629 24.3051 39.6291 24.0287 41.0955C23.7762 42.4356 24.2077 43.7297 25.1548 44.4725C25.9847 45.1235 27.1466 45.6799 29.165 46.3933C30.8118 46.9754 30.7108 48.3827 30.6407 48.8001C30.4646 49.8483 29.5838 50.9807 28.0666 50.9945Z" fill="#039BE5"/>
<path d="M67.7619 22.6782C67.7619 21.4895 68.2889 20.0361 68.7984 18.6306C69.6501 16.2813 70.5309 13.852 69.3649 11.8384C68.5249 10.3853 67.0066 9.79725 65.9375 9.48142C65.3947 9.32077 64.8241 9.63113 64.6637 10.1742C64.5032 10.7174 64.8134 11.2878 65.3564 11.4482C66.52 11.792 67.2294 12.2421 67.5898 12.8654C68.277 14.0522 67.5938 15.9365 66.8705 17.9316C66.3005 19.5037 65.7112 21.1292 65.7112 22.6782C65.7112 24.2272 66.3007 25.8527 66.8705 27.4249C67.5938 29.42 68.277 31.3044 67.5895 32.4916C66.8635 33.7467 64.8436 34.0966 62.705 34.467C61.0956 34.7457 59.4314 35.0338 58.1524 35.7746C56.9245 36.4847 55.8807 37.7536 54.8713 38.9809C53.529 40.6131 52.1407 42.3006 50.5952 42.3006C49.049 42.3006 47.6603 40.6124 46.3174 38.9796C45.3082 37.7529 44.2649 36.4844 43.0382 35.7747C41.7582 35.0338 40.0939 34.7456 38.4844 34.4668C36.3455 34.0964 34.3253 33.7466 33.5993 32.4913C32.9127 31.3046 33.5956 29.4202 34.3186 27.4252C34.8885 25.8529 35.4777 24.2271 35.4777 22.678C35.4777 21.129 34.8885 19.5032 34.3186 17.931C33.8278 16.5765 33.3558 15.2734 33.3181 14.2045C33.3182 14.1993 33.3189 14.1941 33.3189 14.1889C33.3189 14.1706 33.3171 14.1527 33.3162 14.1348C33.3077 13.6573 33.3892 13.2283 33.5994 12.8648C34.3257 11.6092 36.3463 11.2596 38.4858 10.8894C40.0947 10.611 41.7584 10.3231 43.038 9.583C44.2651 8.87314 45.3085 7.60422 46.3175 6.37713C47.6606 4.74425 49.0491 3.05559 50.5952 3.05559C52.1407 3.05559 53.5287 4.74357 54.871 6.37604C55.8806 7.60367 56.9245 8.873 58.1516 9.58273C59.1533 10.1633 60.3698 10.4532 61.4274 10.6602C61.9842 10.7692 62.522 10.4068 62.6309 9.85098C62.7397 9.2952 62.3774 8.75652 61.8216 8.64768C60.9305 8.47323 59.9198 8.23711 59.1792 7.8078C58.2726 7.2836 57.3898 6.21005 56.4551 5.07348C54.8868 3.16633 53.1092 1.00488 50.595 1.00488C48.0803 1.00488 46.3024 3.16702 44.7335 5.07471C43.7991 6.21088 42.9166 7.28387 42.0109 7.80793C41.048 8.3648 39.5675 8.62102 38.1359 8.86876C35.6259 9.30313 33.0304 9.75227 31.824 11.8381C31.5781 12.263 31.4243 12.7066 31.3411 13.1638H21.7206C19.3782 13.1638 17.4726 15.0694 17.4726 17.4117V45.7803H12.2498C10.7607 45.7803 9.45256 46.6223 8.83567 47.9776C8.21933 49.332 8.44341 50.8699 9.41975 51.9907L13.6117 56.8088C13.8144 57.0419 14.0992 57.1612 14.3857 57.1612C14.6244 57.1612 14.8642 57.0783 15.0583 56.9093C15.4856 56.5376 15.5306 55.8899 15.1588 55.4626L10.9665 50.644C10.5178 50.1288 10.4189 49.4497 10.7022 48.8271C10.9859 48.2035 11.5645 47.8312 12.2495 47.8312H18.4976C19.064 47.8312 19.523 47.3721 19.523 46.8058V17.4117C19.523 16.2002 20.5086 15.2146 21.7201 15.2146H31.3688C31.5589 16.3344 31.9775 17.4916 32.3901 18.6301C32.8996 20.0359 33.4264 21.4895 33.4264 22.6783C33.4264 23.8672 32.8994 25.3209 32.3901 26.7265C31.5388 29.0756 30.6585 31.5044 31.8236 33.5184C32.6525 34.9516 34.1376 35.6121 35.7999 36.0261V46.8058C35.7999 47.3721 36.2588 47.8312 36.8253 47.8312H43.0762C43.761 47.8312 44.3393 48.2036 44.6231 48.8275C44.9064 49.4501 44.8078 50.1292 44.3588 50.6445L30.3809 66.7119C29.6966 67.4981 28.7063 67.9491 27.6636 67.9493C27.6635 67.9493 27.6634 67.9493 27.6632 67.9493C26.621 67.9493 25.6308 67.4986 24.9469 66.7134L17.851 58.5565C17.4794 58.1292 16.8318 58.0843 16.4044 58.4559C15.9771 58.8277 15.9321 59.4753 16.3039 59.9026L23.4001 68.0599C24.4739 69.293 26.0277 70.0001 27.6634 70.0001H27.664C29.3001 69.9998 30.8542 69.292 31.9281 68.0581L45.9063 51.9908C46.8829 50.8697 47.1067 49.332 46.4902 47.9776C45.8733 46.622 44.5653 45.7799 43.0767 45.7799H37.8511V36.4382C37.9456 36.4548 38.0401 36.471 38.1343 36.4874C39.5664 36.7355 41.0474 36.9918 42.0108 37.5495C42.9166 38.0736 43.7991 39.1464 44.7333 40.2822C46.3022 42.1895 48.0803 44.3512 50.595 44.3512C53.1092 44.3512 54.8869 42.19 56.4551 40.2833C57.3896 39.1471 58.2724 38.0738 59.1796 37.5492C60.1421 36.9917 61.6228 36.7353 63.0549 36.4873C65.564 36.0527 68.1584 35.6034 69.3643 33.5184C70.5307 31.504 69.6501 29.0749 68.7983 26.7254C68.2889 25.3202 67.7619 23.8668 67.7619 22.6782Z" fill="#039BE5"/>
<path d="M52.74 25.6125C53.256 25.8459 53.8634 25.6163 54.0967 25.1005C54.3299 24.5845 54.1006 23.977 53.5846 23.7436L47.3815 20.9397C47.3725 20.9356 47.3632 20.9316 47.354 20.9278C46.9133 20.7441 46.4108 20.8435 46.0736 21.1814C45.7363 21.5193 45.6378 22.0221 45.8222 22.4624C45.8255 22.4702 45.8288 22.4778 45.8322 22.4854L48.6204 28.7038C48.791 29.0843 49.1649 29.31 49.5567 29.31C49.6969 29.31 49.8394 29.2812 49.9756 29.22C50.4922 28.9883 50.7234 28.3815 50.4917 27.8649L50.0865 26.961L51.8411 25.2063L52.74 25.6125ZM49.1886 24.9583L48.6537 23.7652L49.8438 24.3032L49.1886 24.9583Z" fill="#039BE5"/>
<path d="M55.3531 23.505C55.559 23.505 55.7662 23.4432 55.9446 23.317C56.0359 23.2525 56.0776 23.2229 57.6815 21.6011C58.0797 21.1985 58.0761 20.5492 57.6733 20.151C57.2708 19.7529 56.6215 19.7563 56.2232 20.1591C55.9301 20.4555 55.6213 20.7668 55.3563 21.0329L51.5142 17.1907C51.1136 16.7903 50.4645 16.7903 50.064 17.1907C49.6636 17.5912 49.6636 18.2405 50.064 18.6408L54.6277 23.2045C54.8262 23.4031 55.0887 23.505 55.3531 23.505Z" fill="#039BE5"/>
<path d="M59.1508 19.7151C59.4227 19.7151 59.6835 19.607 59.876 19.4147L61.783 17.5077C62.1834 17.1072 62.1834 16.4579 61.783 16.0576C61.3824 15.6571 60.7332 15.6571 60.3328 16.0576L59.1508 17.2396L58.338 16.4267L59.3793 15.3855C59.7799 14.985 59.7798 14.3358 59.3794 13.9354C58.9788 13.5349 58.3295 13.5348 57.9293 13.9354L56.8879 14.9767L56.0751 14.1638L57.2572 12.9819C57.6576 12.5814 57.6576 11.9321 57.2572 11.5318C56.8566 11.1313 56.2074 11.1313 55.807 11.5318L53.9 13.4388C53.4995 13.8393 53.4995 14.4886 53.9 14.8889L58.4256 19.4147C58.6181 19.607 58.8788 19.7151 59.1508 19.7151Z" fill="#039BE5"/>
<path d="M44.0716 31.4403C43.5041 31.4118 43.0248 31.8484 42.9971 32.414C42.9693 32.9796 43.4052 33.4608 43.971 33.4885C44.0321 33.4915 44.0935 33.493 44.1546 33.493C45.2015 33.493 46.235 33.055 47.0154 32.2747C48.0527 31.2374 48.2571 29.6975 47.5016 28.6134C46.9279 27.7905 45.7097 27.1905 44.0097 27.9739C43.2793 28.3107 42.5667 28.5956 42.3073 28.6975C42.2171 28.6987 42.1564 28.6452 42.1203 28.5968C42.0272 28.4727 42.0327 28.2921 42.1351 28.1015C42.5264 27.3728 43.4759 27.2531 43.5129 27.2488C44.0727 27.1954 44.4857 26.7008 44.4372 26.1395C44.3885 25.5754 43.8907 25.1576 43.3271 25.2064C42.5616 25.2727 41.0686 25.7527 40.3283 27.1313C39.847 28.0274 39.9047 29.0601 40.4787 29.8264C41.0204 30.5497 41.9033 30.8841 42.7828 30.6985C42.8358 30.6873 42.8879 30.6722 42.9383 30.6527C42.9767 30.638 43.8925 30.2865 44.8686 29.8364C45.2292 29.6701 45.6684 29.5696 45.8192 29.7861C45.9491 29.9725 45.9584 30.4315 45.5653 30.8245C45.1539 31.2359 44.5952 31.466 44.0716 31.4403Z" fill="#039BE5"/>
<path d="M10.2205 21.5278L10.3079 21.1983C10.7517 19.5217 9.8128 17.7717 8.17049 17.2141L4.66847 16.0253C3.80233 15.7313 2.84349 15.8108 2.03779 16.2431C1.23181 16.6754 0.635421 17.4304 0.401488 18.3144L0.184782 19.1333C-0.049287 20.0173 0.0955024 20.9685 0.581825 21.7429C1.06842 22.5173 1.86237 23.0606 2.7605 23.2336L6.392 23.9331C6.60091 23.9733 6.80941 23.9927 7.01545 23.9927C8.48878 23.9924 9.83126 22.9988 10.2205 21.5278ZM8.32539 20.6733L8.23803 21.0028V21.0031C8.06904 21.6417 7.42835 22.0444 6.77974 21.919L3.14811 21.2195C2.80111 21.1527 2.50647 20.9511 2.31848 20.6519C2.13048 20.3526 2.07675 19.9996 2.16726 19.6579L2.38397 18.8391C2.47448 18.4974 2.6957 18.2172 3.00729 18.05C3.19405 17.9498 3.39695 17.8991 3.60162 17.8991C3.73807 17.8991 3.87534 17.9216 4.00919 17.9672L7.51121 19.156C8.13671 19.3683 8.49424 20.035 8.32539 20.6733Z" fill="#039BE5"/>
<path d="M6.99687 12.2714L9.79217 14.6931C10.4141 15.2318 11.1874 15.4982 11.9595 15.4982C12.8146 15.4982 13.6679 15.171 14.3104 14.5245L14.5508 14.2826C15.7734 13.0524 15.8355 11.0673 14.6918 9.76339L12.2533 6.98313C11.6505 6.29555 10.7805 5.88484 9.86641 5.85626C8.95119 5.82837 8.05839 6.18344 7.41374 6.83192L6.81654 7.43281C6.17175 8.08156 5.82174 8.97764 5.85579 9.8915C5.88969 10.8054 6.30574 11.6727 6.99687 12.2714ZM8.27099 8.87852L8.8682 8.27762C9.10774 8.03658 9.42357 7.90533 9.76141 7.90533C9.77508 7.90533 9.78862 7.90546 9.80229 7.90601C10.1556 7.91709 10.4784 8.0694 10.7114 8.33518L13.1498 11.1157C13.5854 11.6123 13.5619 12.3684 13.0961 12.8369L12.8557 13.0788C12.3903 13.5473 11.6341 13.5756 11.1349 13.143L8.33963 10.7214C8.07261 10.4901 7.91825 10.1682 7.90499 9.81507C7.892 9.46178 8.02189 9.12913 8.27099 8.87852Z" fill="#039BE5"/>
<path d="M17.1959 8.11194C17.6661 9.47001 18.9523 10.34 20.3319 10.34C20.6171 10.34 20.9063 10.3028 21.1931 10.225H21.1932L21.5221 10.1359C23.196 9.6818 24.2423 7.99382 23.9038 6.29271L23.1824 2.66532C23.004 1.76828 22.4559 0.977614 21.6785 0.49594C20.9011 0.0142655 19.9491 -0.124508 19.0666 0.11462L18.249 0.336384C17.3665 0.575649 16.6152 1.17668 16.1878 1.98512C15.7604 2.79357 15.6869 3.75295 15.986 4.61704L17.1959 8.11194ZM18.0006 2.94369C18.1658 2.63128 18.4446 2.40828 18.7855 2.31586L19.6031 2.09409C19.7139 2.06415 19.8257 2.04925 19.9368 2.04925C20.1678 2.04925 20.3949 2.11364 20.5978 2.23943C20.8982 2.42564 21.1018 2.71905 21.1707 3.06564L21.892 6.69304C22.0208 7.34083 21.6224 7.98384 20.9847 8.15679L20.6559 8.24593C20.0178 8.41902 19.3497 8.06532 19.1334 7.44118L17.9234 3.94641C17.8081 3.61212 17.8355 3.2561 18.0006 2.94369Z" fill="#039BE5"/>
<path d="M67.2364 46.7657L63.6049 46.0662C61.9014 45.7378 60.2198 46.7945 59.7763 48.4713L59.6889 48.8008C59.2451 50.4774 60.184 52.2275 61.8263 52.785L65.3283 53.9738C65.673 54.0909 66.0323 54.1487 66.3909 54.1487C66.9333 54.1487 67.4739 54.0164 67.959 53.756C68.765 53.3237 69.3614 52.5687 69.5953 51.6847L69.812 50.8659C70.0461 49.9818 69.9013 49.0306 69.415 48.2562C68.9285 47.482 68.1344 46.9386 67.2364 46.7657ZM67.8297 50.3413L67.613 51.1601C67.5224 51.5018 67.3012 51.7819 66.9896 51.9491C66.6783 52.1161 66.3224 52.1456 65.9877 52.032L62.4857 50.8432C61.8602 50.6308 61.5027 49.9643 61.6715 49.326L61.7589 48.9965C61.7589 48.9965 61.7589 48.9963 61.7589 48.9962C61.9073 48.4359 62.4183 48.0574 62.9797 48.0574C63.0582 48.0574 63.1376 48.0648 63.2172 48.0803L66.8488 48.7797C67.1958 48.8466 67.4905 49.0481 67.6785 49.3474C67.8664 49.6467 67.92 49.9994 67.8297 50.3413Z" fill="#039BE5"/>
<path d="M63.0007 57.7275L60.2054 55.3058C58.8946 54.1704 56.91 54.2441 55.6871 55.4744L55.4468 55.7163C54.2242 56.9465 54.1621 58.9316 55.3058 60.2355L57.7442 63.0159C58.3471 63.7035 59.217 64.1142 60.1312 64.1428C60.1653 64.1439 60.1994 64.1444 60.2334 64.1444C61.1116 64.1444 61.9632 63.7915 62.5838 63.1673L63.181 62.5664C63.8258 61.9176 64.1758 61.0215 64.1418 60.1077C64.1079 59.1937 63.6918 58.3262 63.0007 57.7275ZM61.7266 61.1204L61.1294 61.7213C60.8803 61.9719 60.5456 62.1058 60.1953 62.0929C59.842 62.0818 59.5192 61.9295 59.2862 61.6637L56.8478 58.8832C56.4122 58.3866 56.4357 57.6305 56.9015 57.162L57.1419 56.9201C57.6074 56.4519 58.3636 56.4234 58.8626 56.8559L61.6581 59.2775C61.9251 59.5088 62.0795 59.8307 62.0927 60.1838C62.1056 60.5371 61.9757 60.8698 61.7266 61.1204Z" fill="#039BE5"/>
<path d="M52.8015 61.8871C52.2341 60.2483 50.4785 59.3207 48.8045 59.7739H48.8043L48.4755 59.863C46.8016 60.3171 45.7553 62.0051 46.0938 63.7062L46.8151 67.3336C46.9936 68.2306 47.5417 69.0213 48.3191 69.503C48.8467 69.83 49.455 69.999 50.0671 69.999C50.3568 69.999 50.6473 69.9611 50.9308 69.8843L51.7484 69.6625C52.6309 69.4233 53.3822 68.8222 53.8096 68.0138C54.237 67.2053 54.3106 66.246 54.0114 65.3819L52.8015 61.8871ZM51.9967 67.0555C51.8315 67.3679 51.5527 67.5909 51.2117 67.6833L50.3941 67.9051C50.0533 67.9974 49.7 67.9461 49.3995 67.7599C49.0991 67.5737 48.8955 67.2803 48.8266 66.9337L48.1053 63.3063C47.9765 62.6585 48.3749 62.0155 49.0126 61.8425L49.3414 61.7534C49.9793 61.5806 50.6478 61.934 50.8639 62.5581L52.0739 66.0529C52.1892 66.3869 52.1618 66.7429 51.9967 67.0555Z" fill="#039BE5"/>
</g>
<defs>
<clipPath id="clip0_31_71">
<rect width="70" height="70" fill="white"/>
</clipPath>
</defs>
</svg>
